<svg xmlns="http://www.w3.org/2000/svg" viewBox="0 0 513.1 193.7"><defs/><path fill="#f08713" d="M101 0v101L0 155V52.5L101 0z"/><path d="M151 38.7v101l-101 54V91.2l101-52.5zM259.6 38.7a18.1 18.1 0 017.2-1.3v9.5h-2.3c-2.9 0-5.3.8-6.9 2.5s-2.5 4.1-2.5 7.4v16.7h-10.3V37.9h9.8v4.7a11.5 11.5 0 015-3.9zM279.5 71.7a18.3 18.3 0 01-7-6.5 18 18 0 01-2.5-9.5 17.4 17.4 0 012.5-9.4 16.9 16.9 0 017-6.5 22.2 22.2 0 0120.1 0 16.6 16.6 0 016.9 6.5 17.4 17.4 0 012.5 9.4 17.5 17.5 0 01-9.4 16 23.1 23.1 0 01-20.1 0zm16.6-8.8a10 10 0 002.5-7.2 10 10 0 00-2.5-7.2 9.6 9.6 0 00-13.1 0 10.1 10.1 0 00-2.6 7.2 10.1 10.1 0 002.6 7.2 9.3 9.3 0 0013.1 0zM348.2 41.4c2.7 2.6 4.1 6.5 4.1 11.7v20.4H342V54.7a9.5 9.5 0 00-1.9-6.3 6.7 6.7 0 00-5.4-2.1 8.3 8.3 0 00-6.2 2.4c-1.5 1.6-2.3 4-2.3 7.2v17.6h-10.3V37.9h9.9v4.2a12.6 12.6 0 015.1-3.5 17.6 17.6 0 016.6-1.2c4.4 0 8 1.3 10.7 4zM384.5 71.8a12.6 12.6 0 01-3.7 1.7 24.2 24.2 0 01-4.7.5c-4.2 0-7.5-1.1-9.8-3.2s-3.5-5.4-3.5-9.5V46.7h-5.5v-8h5.5v-8.6h10.3v8.6h8.9v8h-8.9v14.4a4.8 4.8 0 001.2 3.5 4.5 4.5 0 003.3 1.2 6.3 6.3 0 004.1-1.3zM423.8 58.6h-26.9a8.3 8.3 0 003.5 5.2 11.1 11.1 0 006.7 2 12.6 12.6 0 004.9-.9 10.2 10.2 0 004-2.6l5.5 6q-5 5.7-14.7 5.7a23.9 23.9 0 01-10.6-2.3 17.3 17.3 0 01-7.1-6.5 18.1 18.1 0 01-2.6-9.5 18.6 18.6 0 012.5-9.4 17 17 0 016.8-6.5 19.6 19.6 0 019.7-2.4 20.2 20.2 0 019.5 2.3 16.3 16.3 0 016.6 6.4 19.1 19.1 0 012.4 9.7c0 .2-.1 1.1-.2 2.8zm-24.1-11.4a8 8 0 00-2.9 5.4h17.5a9 9 0 00-2.9-5.4 9.6 9.6 0 00-11.7 0zM463.2 41.4c2.7 2.6 4 6.5 4 11.7v20.4h-10.3V54.7q0-4.2-1.8-6.3a7 7 0 00-5.4-2.1 8.1 8.1 0 00-6.2 2.4c-1.5 1.6-2.3 4-2.3 7.2v17.6h-10.3V37.9h9.8v4.2a14.1 14.1 0 015.1-3.5 18.1 18.1 0 016.7-1.2 14.6 14.6 0 0110.7 4zM513.1 24.5v49h-9.8v-4.1c-2.6 3.1-6.3 4.6-11.1 4.6a18.3 18.3 0 01-9.1-2.2 17.1 17.1 0 01-6.4-6.4 20.2 20.2 0 01-2.3-9.7 19.8 19.8 0 012.3-9.6 16.4 16.4 0 016.4-6.4 18.4 18.4 0 019.1-2.3c4.5 0 8.1 1.4 10.6 4.3V24.5zm-12.6 38.4a10 10 0 002.5-7.2 10 10 0 00-2.5-7.2 9.6 9.6 0 00-13.1 0 10 10 0 00-2.5 7.2 10 10 0 002.5 7.2 9.3 9.3 0 0013.1 0zM213.9 30.4v14.1h24.6v9.9h-24.6v19.3h-12.3V20.5h40.1v9.9zM202 104.5h21.5a30 30 0 0113.7 3 21.8 21.8 0 019.2 8.3 23 23 0 013.3 12.4 23.6 23.6 0 01-3.3 12.5 22.2 22.2 0 01-9.2 8.2 30 30 0 01-13.7 3H202zm21 38.4c4.7 0 8.5-1.3 11.3-4a15.5 15.5 0 000-21.4c-2.8-2.6-6.6-4-11.3-4h-10v29.4zM264.2 150a17.7 17.7 0 01-7.2-6.6 20.1 20.1 0 010-19.4 17.7 17.7 0 017.2-6.6 21.5 21.5 0 0110.3-2.4 22 22 0 0110.3 2.4 18.1 18.1 0 017.1 6.6 20.1 20.1 0 010 19.4 18.1 18.1 0 01-7.1 6.6 22 22 0 01-10.3 2.4 21.5 21.5 0 01-10.3-2.4zm16.9-9a11.2 11.2 0 000-14.6 8.4 8.4 0 00-6.6-2.8 8.6 8.6 0 00-6.7 2.8 11.2 11.2 0 000 14.6 8.6 8.6 0 006.7 2.8 8.4 8.4 0 006.6-2.8zM339 115.5v30.3c0 6.7-1.7 11.6-5.2 14.9s-8.5 4.9-15.2 4.9a40.3 40.3 0 01-10-1.3 21.5 21.5 0 01-7.9-3.8l4.2-7.5a21.1 21.1 0 005.8 3 25 25 0 007.1 1.1c3.6 0 6.3-.8 8.1-2.5s2.6-4.1 2.6-7.4v-1.6c-2.8 3-6.6 4.5-11.5 4.5a19 19 0 01-9.2-2.2 15.8 15.8 0 01-6.6-6.2 17.3 17.3 0 01-2.4-9.2 17.8 17.8 0 012.4-9.2 16.2 16.2 0 016.6-6.1 19 19 0 019.2-2.2c5.2 0 9.3 1.7 12 5.2v-4.7zM325.9 139a9.1 9.1 0 000-12.9 9.4 9.4 0 00-6.8-2.5 9.6 9.6 0 00-6.9 2.5 9.1 9.1 0 000 12.9 9.6 9.6 0 006.9 2.5 9.4 9.4 0 006.8-2.5zM406.3 119c2.7 2.7 4 6.7 4 12.1v20.8h-10.5v-19.2c0-2.9-.6-5.1-1.8-6.5a6.4 6.4 0 00-5.1-2.1 7.5 7.5 0 00-5.9 2.4c-1.5 1.6-2.2 4-2.2 7.1v18.3h-10.5v-19.2c0-5.7-2.3-8.6-6.9-8.6a7.6 7.6 0 00-5.9 2.4c-1.4 1.6-2.1 4-2.1 7.1v18.3h-10.6v-36.4h10.1v4.2a13.7 13.7 0 015-3.5 16.6 16.6 0 016.4-1.2 16 16 0 017 1.5 11.9 11.9 0 015 4.4 14.6 14.6 0 015.7-4.4 17.8 17.8 0 017.4-1.5c4.6 0 8.2 1.3 10.9 4zM447.5 119c3 2.7 4.5 6.7 4.5 12.1v20.8h-9.9v-4.5c-2 3.3-5.7 5-11.1 5a16 16 0 01-7.2-1.4 9.7 9.7 0 01-4.7-3.9 10.3 10.3 0 01-1.7-5.7 9.5 9.5 0 013.9-8c2.5-1.9 6.4-2.9 11.8-2.9h8.3a6.6 6.6 0 00-2.1-5.3c-1.3-1.2-3.4-1.9-6.2-1.9a16.5 16.5 0 00-5.8 1 16 16 0 00-4.7 2.4l-3.8-7.4a25.9 25.9 0 017.1-3.2 30.7 30.7 0 018.6-1.1c5.6 0 9.9 1.3 13 4zm-9 25.1a6.7 6.7 0 002.9-3.7v-3.7h-7.2c-4.3 0-6.5 1.4-6.5 4.2a3.5 3.5 0 001.6 3.2 7.2 7.2 0 004.4 1.2 9.5 9.5 0 004.8-1.2z" class="cls-2"/></svg>