<svg xmlns="http://www.w3.org/2000/svg" viewBox="0 0 841.457 1072.123"><title>Frontend Dogma</title><path d="M0 286.49L560.971 0v562.649L0 853.718z"/><path fill="#fff" d="M35.902 308.468v486.174L525.069 540.83V58.648z"/><path d="M280.486 504.894v567.229l560.971-291.069V218.405z"/><path fill="#fff" d="M461.59 551.588h-97.756v203.705h97.756c56.252 0 101.853-45.6 101.853-101.853 0-56.251-45.601-101.852-101.853-101.852zm63.479 101.56c0 38.632-31.318 69.95-69.95 69.95h-54.407V583.197h54.406c38.633 0 69.95 31.318 69.95 69.95z"/><path d="M230.957 364.857v-31.609H81.69v202.6h36.293v-77.333h98.926v-31.656h-98.926v-62.002z"/></svg>