<svg id="Layer_1" data-name="Layer 1" xmlns="http://www.w3.org/2000/svg" viewBox="0 0 513.1 193.7"><defs><style>.cls-1{fill:#f08713}.cls-2{fill:#323232}</style></defs><title>Frontend Dogma</title><polygon class="cls-1" points="101 0 101 101 0 155 0 52.5 101 0"/><polygon class="cls-2" points="151 38.7 151 139.7 50 193.7 50 91.2 151 38.7"/><path class="cls-2" d="M259.6,38.7a18.1,18.1,0,0,1,7.2-1.3v9.5h-2.3c-2.9,0-5.3.8-6.9,2.5s-2.5,4.1-2.5,7.4V73.5H244.8V37.9h9.8v4.7A11.5,11.5,0,0,1,259.6,38.7Z"/><path class="cls-2" d="M279.5,71.7a18.3,18.3,0,0,1-7-6.5,18,18,0,0,1-2.5-9.5,17.4,17.4,0,0,1,2.5-9.4,16.9,16.9,0,0,1,7-6.5,22.2,22.2,0,0,1,20.1,0,16.6,16.6,0,0,1,6.9,6.5,17.4,17.4,0,0,1,2.5,9.4,17.5,17.5,0,0,1-9.4,16,23.1,23.1,0,0,1-20.1,0Zm16.6-8.8a10,10,0,0,0,2.5-7.2,10,10,0,0,0-2.5-7.2,9.6,9.6,0,0,0-13.1,0,10.1,10.1,0,0,0-2.6,7.2,10.1,10.1,0,0,0,2.6,7.2,9.3,9.3,0,0,0,13.1,0Z"/><path class="cls-2" d="M348.2,41.4c2.7,2.6,4.1,6.5,4.1,11.7V73.5H342V54.7a9.5,9.5,0,0,0-1.9-6.3,6.7,6.7,0,0,0-5.4-2.1,8.3,8.3,0,0,0-6.2,2.4c-1.5,1.6-2.3,4-2.3,7.2V73.5H315.9V37.9h9.9v4.2a12.6,12.6,0,0,1,5.1-3.5,17.6,17.6,0,0,1,6.6-1.2C341.9,37.4,345.5,38.7,348.2,41.4Z"/><path class="cls-2" d="M384.5,71.8a12.6,12.6,0,0,1-3.7,1.7,24.2,24.2,0,0,1-4.7.5c-4.2,0-7.5-1.1-9.8-3.2s-3.5-5.4-3.5-9.5V46.7h-5.5v-8h5.5V30.1h10.3v8.6H382v8h-8.9V61.1a4.8,4.8,0,0,0,1.2,3.5,4.5,4.5,0,0,0,3.3,1.2,6.3,6.3,0,0,0,4.1-1.3Z"/><path class="cls-2" d="M423.8,58.6H396.9a8.3,8.3,0,0,0,3.5,5.2,11.1,11.1,0,0,0,6.7,2,12.6,12.6,0,0,0,4.9-.9,10.2,10.2,0,0,0,4-2.6l5.5,6q-5,5.7-14.7,5.7a23.9,23.9,0,0,1-10.6-2.3,17.3,17.3,0,0,1-7.1-6.5,18.1,18.1,0,0,1-2.6-9.5,18.6,18.6,0,0,1,2.5-9.4,17,17,0,0,1,6.8-6.5,19.6,19.6,0,0,1,9.7-2.4,20.2,20.2,0,0,1,9.5,2.3,16.3,16.3,0,0,1,6.6,6.4,19.1,19.1,0,0,1,2.4,9.7C424,56,423.9,56.9,423.8,58.6ZM399.7,47.2a8,8,0,0,0-2.9,5.4h17.5a9,9,0,0,0-2.9-5.4,9.6,9.6,0,0,0-11.7,0Z"/><path class="cls-2" d="M463.2,41.4c2.7,2.6,4,6.5,4,11.7V73.5H456.9V54.7q0-4.2-1.8-6.3a7,7,0,0,0-5.4-2.1,8.1,8.1,0,0,0-6.2,2.4c-1.5,1.6-2.3,4-2.3,7.2V73.5H430.9V37.9h9.8v4.2a14.1,14.1,0,0,1,5.1-3.5,18.1,18.1,0,0,1,6.7-1.2A14.6,14.6,0,0,1,463.2,41.4Z"/><path class="cls-2" d="M513.1,24.5v49h-9.8V69.4c-2.6,3.1-6.3,4.6-11.1,4.6a18.3,18.3,0,0,1-9.1-2.2,17.1,17.1,0,0,1-6.4-6.4,20.2,20.2,0,0,1-2.3-9.7,19.8,19.8,0,0,1,2.3-9.6,16.4,16.4,0,0,1,6.4-6.4,18.4,18.4,0,0,1,9.1-2.3c4.5,0,8.1,1.4,10.6,4.3V24.5ZM500.5,62.9a10,10,0,0,0,2.5-7.2,10,10,0,0,0-2.5-7.2,9.6,9.6,0,0,0-13.1,0,10,10,0,0,0-2.5,7.2,10,10,0,0,0,2.5,7.2,9.3,9.3,0,0,0,13.1,0Z"/><path class="cls-2" d="M213.9,30.4V44.5h24.6v9.9H213.9V73.7H201.6V20.5h40.1v9.9Z"/><path class="cls-2" d="M202,104.5h21.5a30,30,0,0,1,13.7,3,21.8,21.8,0,0,1,9.2,8.3,23,23,0,0,1,3.3,12.4,23.6,23.6,0,0,1-3.3,12.5,22.2,22.2,0,0,1-9.2,8.2,30,30,0,0,1-13.7,3H202Zm21,38.4c4.7,0,8.5-1.3,11.3-4a15.5,15.5,0,0,0,0-21.4c-2.8-2.6-6.6-4-11.3-4H213v29.4Z"/><path class="cls-2" d="M264.2,150a17.7,17.7,0,0,1-7.2-6.6,20.1,20.1,0,0,1,0-19.4,17.7,17.7,0,0,1,7.2-6.6,21.5,21.5,0,0,1,10.3-2.4,22,22,0,0,1,10.3,2.4,18.1,18.1,0,0,1,7.1,6.6,20.1,20.1,0,0,1,0,19.4,18.1,18.1,0,0,1-7.1,6.6,22,22,0,0,1-10.3,2.4A21.5,21.5,0,0,1,264.2,150Zm16.9-9a11.2,11.2,0,0,0,0-14.6,8.4,8.4,0,0,0-6.6-2.8,8.6,8.6,0,0,0-6.7,2.8,11.2,11.2,0,0,0,0,14.6,8.6,8.6,0,0,0,6.7,2.8A8.4,8.4,0,0,0,281.1,141Z"/><path class="cls-2" d="M339,115.5v30.3c0,6.7-1.7,11.6-5.2,14.9s-8.5,4.9-15.2,4.9a40.3,40.3,0,0,1-10-1.3,21.5,21.5,0,0,1-7.9-3.8l4.2-7.5a21.1,21.1,0,0,0,5.8,3,25,25,0,0,0,7.1,1.1c3.6,0,6.3-.8,8.1-2.5s2.6-4.1,2.6-7.4v-1.6c-2.8,3-6.6,4.5-11.5,4.5a19,19,0,0,1-9.2-2.2,15.8,15.8,0,0,1-6.6-6.2,17.3,17.3,0,0,1-2.4-9.2,17.8,17.8,0,0,1,2.4-9.2,16.2,16.2,0,0,1,6.6-6.1A19,19,0,0,1,317,115c5.2,0,9.3,1.7,12,5.2v-4.7ZM325.9,139a9.1,9.1,0,0,0,0-12.9,9.4,9.4,0,0,0-6.8-2.5,9.6,9.6,0,0,0-6.9,2.5,9.1,9.1,0,0,0,0,12.9,9.6,9.6,0,0,0,6.9,2.5A9.4,9.4,0,0,0,325.9,139Z"/><path class="cls-2" d="M406.3,119c2.7,2.7,4,6.7,4,12.1v20.8H399.8V132.7c0-2.9-.6-5.1-1.8-6.5a6.4,6.4,0,0,0-5.1-2.1,7.5,7.5,0,0,0-5.9,2.4c-1.5,1.6-2.2,4-2.2,7.1v18.3H374.3V132.7c0-5.7-2.3-8.6-6.9-8.6a7.6,7.6,0,0,0-5.9,2.4c-1.4,1.6-2.1,4-2.1,7.1v18.3H348.8V115.5h10.1v4.2a13.7,13.7,0,0,1,5-3.5,16.6,16.6,0,0,1,6.4-1.2,16,16,0,0,1,7,1.5,11.9,11.9,0,0,1,5,4.4,14.6,14.6,0,0,1,5.7-4.4,17.8,17.8,0,0,1,7.4-1.5C400,115,403.6,116.3,406.3,119Z"/><path class="cls-2" d="M447.5,119c3,2.7,4.5,6.7,4.5,12.1v20.8h-9.9v-4.5c-2,3.3-5.7,5-11.1,5a16,16,0,0,1-7.2-1.4,9.7,9.7,0,0,1-4.7-3.9,10.3,10.3,0,0,1-1.7-5.7,9.5,9.5,0,0,1,3.9-8c2.5-1.9,6.4-2.9,11.8-2.9h8.3a6.6,6.6,0,0,0-2.1-5.3c-1.3-1.2-3.4-1.9-6.2-1.9a16.5,16.5,0,0,0-5.8,1,16,16,0,0,0-4.7,2.4l-3.8-7.4a25.9,25.9,0,0,1,7.1-3.2,30.7,30.7,0,0,1,8.6-1.1C440.1,115,444.4,116.3,447.5,119Zm-9,25.1a6.7,6.7,0,0,0,2.9-3.7v-3.7h-7.2c-4.3,0-6.5,1.4-6.5,4.2a3.5,3.5,0,0,0,1.6,3.2,7.2,7.2,0,0,0,4.4,1.2A9.5,9.5,0,0,0,438.5,144.1Z"/></svg>